<svg width="22" height="22" viewBox="0 0 22 22" fill="none" xmlns="http://www.w3.org/2000/svg">
<path d="M5.01591 0.505341C3.42479 0.436588 2.21715 1.04115 1.45748 1.76796C1.07765 2.13136 0.803411 2.5202 0.615732 2.8832C0.428053 3.2462 0.308814 3.54546 0.308814 3.93462C0.308814 3.89996 0.300266 4.0819 0.295139 4.2932C0.290005 4.5045 0.290939 4.78932 0.310333 5.13343C0.349199 5.82163 0.465839 6.75254 0.775269 7.85619C1.39413 10.0635 2.78761 12.959 5.81055 15.9819C8.83349 19.0049 11.7288 20.3982 13.9363 21.0172C15.04 21.3267 15.9708 21.4432 16.6591 21.4821C17.0032 21.5016 17.2864 21.5024 17.4978 21.4973C17.7091 21.4922 17.8924 21.4837 17.8579 21.4837C18.247 21.4837 18.5463 21.3644 18.9093 21.1767C19.2723 20.9891 19.6611 20.7148 20.0245 20.335C20.7513 19.5753 21.3559 18.3677 21.2871 16.7766C21.2545 16.0177 20.8332 15.3457 20.2114 14.9472C19.7309 14.6393 18.9849 14.1614 18.0113 13.5387C16.8817 12.817 15.4368 12.7654 14.2584 13.4111L14.3253 13.3777L13.4091 13.7712L13.3422 13.8183C13.1195 13.9747 12.8437 14.0036 12.5931 13.8988C11.8913 13.6053 10.7976 13.0286 9.78074 12.0117C8.76386 10.9949 8.18716 9.90122 7.89365 9.19933C7.78885 8.94877 7.81782 8.67296 7.97418 8.45027L8.02128 8.38342L8.4148 7.46722L8.38137 7.53407C9.02687 6.35594 8.97668 4.91113 8.25375 3.78116C7.63112 2.80754 7.15316 2.06159 6.84526 1.58107C6.44677 0.959286 5.77477 0.537968 5.01591 0.505341ZM4.94905 2.05968C5.16728 2.06907 5.3926 2.19674 5.53554 2.41978C5.84376 2.90079 6.32195 3.64711 6.94402 4.61987C7.35686 5.26514 7.38588 6.11319 7.01696 6.78653L6.99872 6.81996L6.62343 7.69665L6.70092 7.55535C6.24116 8.21016 6.14875 9.06053 6.45782 9.7995C6.80843 10.6379 7.47891 11.91 8.6807 13.1118C9.88248 14.3136 11.1546 14.9841 11.993 15.3347C12.7319 15.6437 13.5823 15.5513 14.2371 15.0916L14.0958 15.169L14.9725 14.7938L15.0059 14.7755C15.679 14.4068 16.527 14.4375 17.1726 14.85V14.8485C18.1454 15.4705 18.8917 15.9487 19.3727 16.2569C19.5957 16.3999 19.7234 16.6252 19.7328 16.8434C19.7838 18.0248 19.3735 18.7645 18.9002 19.2593C18.6635 19.5066 18.4068 19.6862 18.1952 19.7956C17.9835 19.9051 17.781 19.9278 17.8579 19.9278C17.7152 19.9278 17.64 19.9372 17.4613 19.9415C17.2826 19.9458 17.043 19.9461 16.7472 19.9293C16.1556 19.8958 15.339 19.7949 14.3556 19.5191C12.3889 18.9675 9.75249 17.7238 6.9106 14.8819C4.06871 12.04 2.82474 9.40333 2.2734 7.43683C1.99772 6.45358 1.89656 5.63682 1.86316 5.0453C1.84646 4.74954 1.84667 4.5099 1.851 4.33118C1.85536 4.15247 1.86468 4.07742 1.86468 3.93462C1.86468 4.01144 1.88742 3.80899 1.99686 3.59732C2.10631 3.38564 2.28584 3.12899 2.53321 2.89231C3.02796 2.41897 3.76763 2.00864 4.94905 2.05968Z" fill="white"/>
</svg>
